<svg width="44" height="41" viewBox="0 0 44 41" fill="none" xmlns="http://www.w3.org/2000/svg">
<path d="M34.7153 8.55878C34.9437 8.68941 35.17 8.8238 35.4008 8.95C36.3912 9.49144 37.3831 10.0299 38.3659 10.5851C38.9295 10.9034 39.4998 11.2095 40.0714 11.5132C40.2956 11.6323 40.5172 11.7563 40.7373 11.8827C40.8346 11.9386 40.8421 11.9987 40.7532 12.0389C40.3479 12.2221 39.968 12.4537 39.5818 12.6708C39.1526 12.9121 38.7133 13.136 38.2935 13.3957C38.1212 13.5023 37.9426 13.598 37.7595 13.6847C37.3074 13.8988 36.883 14.1623 36.4427 14.3965C35.9332 14.6675 35.4272 14.9471 34.9246 15.2315C34.4309 15.5108 33.9326 15.7813 33.4348 16.0529C32.907 16.3408 32.377 16.6257 31.8555 16.9237C31.4483 17.1564 31.029 17.3675 30.6268 17.6107C30.4237 17.7335 30.2044 17.8423 29.9916 17.955C29.4542 18.2395 28.9299 18.5488 28.3944 18.837C28.0411 19.0272 27.6933 19.227 27.3411 19.4187C26.6808 19.7782 26.0249 20.1456 25.3655 20.5062C24.9188 20.7505 24.4726 20.9971 24.0242 21.2387C23.4436 21.5516 22.8743 21.8854 22.2942 22.1991C22.0956 22.3065 21.8948 22.4095 21.7015 22.5264C21.5628 22.6102 21.4376 22.5814 21.3267 22.4702C21.3152 22.4586 21.3097 22.4348 21.2972 22.4311C21.0088 22.3446 20.791 22.1172 20.5128 22.0248C20.37 21.9774 20.2903 21.8521 20.1619 21.8162C19.8804 21.7376 19.6525 21.5528 19.4044 21.4195C19.1836 21.3009 18.9295 21.2167 18.7393 21.0335C18.6875 20.9836 18.6091 20.9575 18.5389 20.9312C18.4166 20.8855 18.282 20.8653 18.208 20.736C18.1981 20.7187 18.1649 20.7124 18.1412 20.7057C17.8696 20.6284 17.6542 20.4411 17.4057 20.3175C17.1656 20.1981 16.9038 20.0938 16.7021 19.9003C16.6913 19.89 16.6703 19.8902 16.654 19.886C16.3468 19.8059 16.1002 19.6001 15.8313 19.4508C15.6262 19.3368 15.3741 19.2782 15.2135 19.0815C15.1944 19.058 15.1563 19.0462 15.1247 19.0372C14.8289 18.9533 14.5762 18.7706 14.3232 18.6174C14.083 18.4718 13.8268 18.3472 13.5846 18.2091C13.3184 18.0572 13.0705 17.8511 12.7605 17.7777C12.6599 17.7539 12.6189 17.6454 12.5252 17.6144C12.2272 17.5156 12.0072 17.2622 11.6933 17.1955C11.5345 16.9981 11.245 17.0068 11.0846 16.8097C11.0655 16.7862 11.0276 16.7719 10.9959 16.7656C10.6887 16.7043 10.4885 16.4286 10.1845 16.362C9.99319 16.1356 9.65435 16.151 9.46387 15.9225C9.45436 15.9111 9.43434 15.9069 9.41835 15.9027C9.14479 15.8295 8.93303 15.6359 8.68295 15.5142C8.44226 15.3971 8.1842 15.2872 7.9776 15.0998C7.93001 15.0567 7.86166 15.03 7.79825 15.0121C7.64595 14.9691 7.50195 14.9166 7.39944 14.7866C7.39037 14.7751 7.37007 14.7707 7.35405 14.7668C7.0862 14.7016 6.86765 14.524 6.64412 14.3882C6.40416 14.2423 6.14491 14.1257 5.90567 13.977C5.65942 13.8239 5.41039 13.6451 5.13079 13.5572C4.96384 13.5048 4.87136 13.3612 4.71327 13.3123C4.43742 13.227 4.20926 13.0435 3.95614 12.9129C3.71009 12.786 3.46728 12.631 3.21959 12.5059C2.97223 12.381 2.76155 12.1833 2.48365 12.1195C2.39699 12.0996 2.36529 12.0249 2.3456 11.9588C2.32077 11.8753 2.42204 11.8836 2.46281 11.8519C2.66161 11.6972 2.90191 11.6132 3.11811 11.485C3.52717 11.2426 3.96027 11.041 4.37132 10.8017C5.12247 10.3645 5.89271 9.96182 6.64979 9.53537C7.10007 9.28173 7.55106 9.0256 8.0142 8.79337C8.19229 8.70408 8.35758 8.58924 8.52871 8.48604" fill="#034177"/>
<path d="M20.9622 27.2358C20.7419 27.1702 20.5536 27.0391 20.3542 26.9323C19.9543 26.718 19.5613 26.4908 19.1657 26.2685C18.7684 26.0452 18.372 25.8205 17.9743 25.5981C17.7912 25.4956 17.6051 25.3984 17.4217 25.2963C16.8129 24.9574 16.2058 24.6155 15.5962 24.2781C15.0454 23.9732 14.4915 23.6737 13.9402 23.3697C13.308 23.0212 12.6729 22.6774 12.0467 22.3183C11.4187 21.9581 10.7953 21.5898 10.158 21.2457C9.52097 20.9018 8.88519 20.5542 8.25725 20.1949C7.17801 19.5773 6.08497 18.985 5.00223 18.374C3.94828 17.7792 2.88816 17.1954 1.83036 16.6075C1.81617 16.5996 1.79693 16.6008 1.78005 16.5978C1.57706 16.4459 1.33993 16.3541 1.12356 16.2251C0.820442 16.0443 0.512446 15.87 0.196367 15.7135C0.038829 15.6355 0.000168317 15.5339 0.00434039 15.3703C0.014857 14.9579 0.00782357 14.545 0.00782357 14.1323C0.00782357 13.4788 0.00681216 12.8254 0.00924523 12.1719C0.00951614 12.0991 -0.027612 12.0043 0.0450601 11.9579C0.126832 11.9057 0.17723 12.0021 0.242918 12.0343C0.590825 12.2044 0.921119 12.4059 1.25968 12.5926C1.85602 12.9216 2.45146 13.2519 3.04403 13.5877C3.38008 13.7781 3.71836 13.9662 4.05901 14.1488C4.68903 14.4864 5.31384 14.8328 5.93268 15.1907C6.318 15.4135 6.71935 15.6084 7.10826 15.8252C7.64434 16.1241 8.1738 16.4349 8.70931 16.7348C9.06848 16.9359 9.43539 17.1232 9.79496 17.3237C10.3604 17.6389 10.9183 17.9678 11.4877 18.2757C11.8354 18.4638 12.1794 18.6581 12.5251 18.8496C13.1133 19.1754 13.7012 19.5018 14.2879 19.8304C14.6543 20.0355 15.024 20.236 15.3921 20.4388C15.9516 20.747 16.504 21.0682 17.0629 21.3773C17.5514 21.6474 18.0465 21.9053 18.5355 22.1745C19.3267 22.61 20.1138 23.0531 20.9066 23.4855C21.0167 23.5456 21.0102 23.6269 21.0102 23.7201C21.0101 24.4252 21.0101 25.1302 21.0101 25.8353C21.0101 26.2222 21.0124 26.6091 21.0083 26.996C21.0075 27.0766 21.0455 27.1693 20.9622 27.2358Z" fill="#F26622"/>
<path d="M41.2931 16.6246C41.1925 16.6245 41.1155 16.6839 41.0336 16.7294C37.3371 18.7821 33.6409 20.8351 29.9445 22.8881C27.4332 24.2829 24.9218 25.6777 22.4105 27.0727C22.3354 27.1143 22.2618 27.1585 22.1874 27.2015C22.1183 27.1291 22.1468 27.0384 22.1467 26.9557C22.1447 25.8979 22.1499 24.84 22.141 23.7822C22.1394 23.6032 22.1971 23.5098 22.3526 23.4236C25.8628 21.4796 29.3699 19.5299 32.8776 17.5813C33.6482 17.1532 34.4189 16.7252 35.1895 16.2972C37.707 14.8992 40.2242 13.5009 42.7426 12.1045C42.8516 12.044 42.9533 11.9613 43.0794 11.9414C43.1299 12.0166 43.1112 12.0867 43.1112 12.1526C43.1126 13.2191 43.1076 14.2856 43.1168 15.3519C43.1183 15.5247 43.0608 15.6107 42.9131 15.6897C42.399 15.9647 41.8936 16.2557 41.3833 16.5376C41.3426 16.5601 41.3172 16.5894 41.2931 16.6246Z" fill="#F26622"/>
<path d="M35.9294 13.2358H7.33279C6.64877 13.2358 6.41231 12.2047 7.00976 11.8273L14.1777 7.29858H29.0997L36.2544 11.8188C36.8554 12.1985 36.6175 13.2358 35.9294 13.2358Z" fill="black"/>
<path d="M8.97984 0.503271H8.97992L21.6191 0.503263H21.6438H21.6684H21.693H21.7177H21.7423H21.7669H21.7916H21.8162H21.8408H21.8655H21.8901H21.9148H21.9394H21.964H21.9887H22.0133H22.0379H22.0626H22.0872H22.1118H22.1365H22.1611H22.1857H22.2104H22.235H22.2597H22.2843H22.3089H22.3336H22.3582H22.3828H22.4075H22.4321H22.4567H22.4814H22.506H22.5306H22.5553H22.5799H22.6045H22.6292H22.6538H22.6785H22.7031H22.7277H22.7524H22.777H22.8016H22.8263H22.8509H22.8755H22.9002H22.9248H22.9494H22.9741H22.9987H23.0234H23.048H23.0726H23.0973H23.1219H23.1465H23.1712H23.1958H23.2204H23.2451H23.2697H23.2943H23.319H23.3436H23.3683H23.3929H23.4175H23.4422H23.4668H23.4914H23.5161H23.5407H23.5653H23.59H23.6146H23.6392H23.6639H23.6885H23.7131H23.7378H23.7624H23.7871H23.8117H23.8363H23.861H23.8856H23.9102H23.9349H23.9595H23.9841H24.0088H24.0334H24.058H24.0827H24.1073H24.132H24.1566H24.1812H24.2059H24.2305H24.2551H24.2798H24.3044H24.329H24.3537H24.3783H24.4029H24.4276H24.4522H24.4769H24.5015H24.5261H24.5508H24.5754H24.6H24.6247H24.6493H24.6739H24.6986H24.7232H24.7478H24.7725H24.7971H24.8217H24.8464H24.871H24.8957H24.9203H24.9449H24.9696H24.9942H25.0188H25.0435H25.0681H25.0927H25.1174H25.142H25.1666H25.1913H25.2159H25.2406H25.2652H25.2898H25.3145H25.3391H25.3637H25.3884H25.413H25.4376H25.4623H25.4869H25.5115H25.5362H25.5608H25.5855H25.6101H25.6347H25.6594H25.684H25.7086H25.7333H25.7579H25.7825H25.8072H25.8318H25.8564H25.8811H25.9057H25.9303H25.955H25.9796H26.0043H26.0289H26.0535H26.0782H26.1028H26.1274H26.1521H26.1767H26.2013H26.226H26.2506H26.2752H26.2999H26.3245H26.3492H26.3738H26.3984H26.4231H26.4477H26.4723H26.497H26.5216H26.5462H26.5709H26.5955H26.6201H26.6448H26.6694H26.694H26.7187H26.7433H26.768H26.7926H26.8172H26.8419H26.8665H26.8911H26.9158H26.9404H26.965H26.9897H27.0143H27.0389H27.0636H27.0882H27.1129H27.1375H27.1621H27.1868H27.2114H27.236H27.2607H27.2853H27.3099H27.3346H27.3592H27.3838H27.4085H27.4331H27.4578H27.4824H27.507H27.5317H27.5563H27.5809H27.6056H27.6302H27.6548H27.6795H27.7041H27.7287H27.7534H27.778H27.8027H27.8273H27.8519H27.8766H27.9012H27.9258H27.9505H27.9751H27.9997H28.0244H28.049H28.0736H28.0983H28.1229H28.1475H28.1722H28.1968H28.2215H28.2461H28.2707H28.2954H28.32H28.3446H28.3693H28.3939H28.4185H28.4432H28.4678H28.4924H28.5171H28.5417H28.5664H28.591H28.6156H28.6403H28.6649H28.6895H28.7142H28.7388H28.7634H28.7881H28.8127H28.8373H28.862H28.8866H28.9113H28.9359H28.9605H28.9852H29.0098H29.0344H29.0591H29.0837H29.1083H29.133H29.1576H29.1822H29.2069H29.2315H29.2561H29.2808H29.3054H29.3301H29.3547H29.3793H29.404H29.4286H29.4532H29.4779H29.5025H29.5271H29.5518H29.5764H29.601H29.6257H29.6503H29.675H29.6996H29.7242H29.7489H29.7735H29.7981H29.8228H29.8474H29.872H29.8967H29.9213H29.9459H29.9706H29.9952H30.0198H30.0445H30.0691H30.0938H30.1184H30.143H30.1677H30.1923H30.2169H30.2416H30.2662H30.2908H30.3155H30.3401H30.3647H30.3894H30.414H30.4387H30.4633H30.4879H30.5126H30.5372H30.5618H30.5865H30.6111H30.6357H30.6604H30.685H30.7096H30.7343H30.7589H30.7836H30.8082H30.8328H30.8575H30.8821H30.9067H30.9314H30.956H30.9806H31.0053H31.0299H31.0545H31.0792H31.1038H31.1285H31.1531H31.1777H31.2024H31.227H31.2516H31.2763H31.3009H31.3255H31.3502H31.3748H31.3994H31.4241H31.4487H31.4733H31.498H31.5226H31.5473H31.5719H31.5965H31.6212H31.6458H31.6704H31.6951H31.7197H31.7443H31.769H31.7936H31.8182H31.8429H31.8675H31.8922H31.9168H31.9414H31.9661H31.9907H32.0153H32.04H32.0646H32.0892H32.1139H32.1385H32.1631H32.1878H32.2124H32.2371H32.2617H32.2863H32.311H32.3356H32.3602H32.3849H32.4095H32.4341H32.4588H32.4834H32.508H32.5327H32.5573H32.5819H32.6066H32.6312H32.6559H32.6805H32.7051H32.7298H32.7544H32.779H32.8037H32.8283H32.8529H32.8776H32.9022H32.9268H32.9515H32.9761H33.0008H33.0254H33.05H33.0747H33.0993H33.1239H33.1486H33.1732H33.1978H33.2225H33.2471H33.2717H33.2964H33.321H33.3456H33.3703H33.3949H33.4196H33.4442H33.4688H33.4935H33.5181H33.5427H33.5674H33.592H33.6166H33.6413H33.6659H33.6905H33.7152H33.7398H33.7645H33.7891H33.8137H33.8384H33.863H33.8876H33.9123H33.9369H33.9615H33.9862H34.0108H34.0354H34.0601H34.0847H34.1094H34.134H34.1586H34.1833H34.2079H34.2325C34.2542 0.503263 34.2744 0.503719 34.2904 0.504125L34.3316 0.505123C34.3427 0.505313 34.3502 0.505289 34.3555 0.505153L8.97984 0.503271ZM8.97984 0.503271C8.82078 0.503298 8.60835 0.534938 8.43065 0.684315C8.23631 0.84768 8.17653 1.07122 8.17653 1.2583M8.97984 0.503271L35.0795 1.20792M35.0795 1.20792C35.0947 1.08513 35.094 0.85038 34.899 0.666624C34.7066 0.485203 34.467 0.494098 34.362 0.504867L35.0795 1.20792ZM35.0795 1.20792L35.0797 1.21219L35.08 1.22009C35.0804 1.23096 35.0811 1.24839 35.0811 1.26799C35.0811 2.00933 35.0811 2.75066 35.081 3.49199C35.081 6.17263 35.081 8.8532 35.0815 11.5338C35.0815 11.5434 35.0815 11.5539 35.0816 11.5651C35.0818 11.6243 35.0822 11.7031 35.0763 11.7655C35.0696 11.8367 35.0452 12.0428 34.8603 12.1937C34.7052 12.3203 34.5252 12.3292 34.47 12.332L34.466 12.3322C34.4156 12.3348 34.348 12.3343 34.2872 12.334C34.2667 12.3338 34.247 12.3337 34.229 12.3337C31.947 12.3337 29.665 12.3336 27.383 12.3336C21.2561 12.3336 15.1291 12.3335 9.00214 12.3327C8.96336 12.3327 8.92939 12.3335 8.89715 12.3343C8.89303 12.3344 8.88873 12.3345 8.88428 12.3347C8.85762 12.3354 8.82575 12.3362 8.79784 12.3362C8.76725 12.3361 8.71309 12.3353 8.65386 12.325C8.59258 12.3142 8.49057 12.2875 8.39217 12.209C8.19044 12.0482 8.18002 11.8158 8.17779 11.766C8.17771 11.7642 8.17764 11.7627 8.17758 11.7614C8.17542 11.7194 8.17606 11.6552 8.1766 11.6022C8.17681 11.5813 8.177 11.5621 8.17699 11.5468C8.17637 8.81573 8.17643 6.08466 8.17649 3.35368C8.17651 2.65521 8.17653 1.95675 8.17653 1.2583M8.17653 1.2583L8.67653 1.2583L8.17653 1.2583ZM35.0758 1.23434C35.0759 1.23345 35.076 1.23255 35.0762 1.23165C35.0761 1.23254 35.0759 1.23344 35.0758 1.23436L35.0758 1.23434Z" fill="white" stroke="black"/>
<path d="M25.0585 2.21212L20.1732 7.27219L17.8849 5.08009L16.2771 6.70568L20.1732 10.5238L26.6667 3.83727L25.0585 2.21212Z" fill="#034177"/>
<path d="M41.2275 30.9414C41.2275 30.981 41.2276 31.0207 41.2276 31.0603C41.2337 31.0345 41.2349 31.0055 41.2301 30.9719C41.2287 30.9618 41.2279 30.9516 41.2275 30.9414Z" fill="#034177"/>
<path d="M41.2301 30.4556C41.2287 30.4455 41.2279 30.4354 41.2275 30.4251C41.2275 30.4648 41.2276 30.5044 41.2276 30.5441C41.2337 30.5183 41.2349 30.4892 41.2301 30.4556Z" fill="#034177"/>
<path d="M22.1191 40.9966C22.2589 41.0173 22.3375 40.9376 22.4243 40.8901C26.3994 38.718 30.3734 36.5438 34.3477 34.3703C34.8626 34.0886 35.3793 33.81 35.8945 33.5289C37.2271 32.8018 38.5593 32.0741 39.8915 31.3464C40.2897 31.1289 40.6857 30.9073 41.0864 30.6947C41.1611 30.6552 41.2114 30.611 41.2274 30.5444C41.2266 26.6184 41.2259 22.6924 41.2247 18.7664C41.2246 18.4655 41.2189 18.1646 41.2157 17.8637C41.1151 17.8635 41.0381 17.9229 40.9562 17.9684C37.2597 20.0211 33.5635 22.0742 29.8672 24.1272C27.3558 25.522 24.8444 26.9167 22.3331 28.3117C22.261 28.3517 22.1902 28.394 22.1189 28.4354C22.119 32.5227 22.1191 36.61 22.1191 40.6972C22.1191 40.7976 22.1191 40.8979 22.1191 40.9966Z" fill="#034177"/>
<path d="M2.00206 30.6325C2.14351 30.6761 2.27274 30.7476 2.38968 30.8305C2.6436 31.0104 2.93135 31.1336 3.19951 31.2821C3.49786 31.4473 3.80751 31.6065 4.10925 31.7698C4.40248 31.9286 4.69594 32.0976 4.98762 32.2559C5.28775 32.4188 5.59833 32.5758 5.89907 32.7406C6.19931 32.9051 6.49932 33.0822 6.79986 33.2394C7.14183 33.4183 7.48285 33.606 7.82527 33.7856C8.12613 33.9434 8.41208 34.1346 8.71357 34.2948C8.96533 34.4286 9.22991 34.5384 9.48048 34.6743C13.2038 36.6925 16.9257 38.7133 20.6479 40.7336C20.872 40.8552 20.9839 40.7849 20.9839 40.5228C20.9839 36.4547 20.9839 32.3867 20.984 28.3187C20.7654 28.2527 20.5782 28.1226 20.38 28.0165C19.9801 27.8022 19.5871 27.575 19.1915 27.3526C18.7942 27.1294 18.3978 26.9047 18.0002 26.6822C17.817 26.5798 17.6309 26.4826 17.4475 26.3805C16.8388 26.0416 16.2316 25.6997 15.622 25.3623C15.0712 25.0573 14.5174 24.7579 13.966 24.4539C13.3338 24.1053 12.6987 23.7616 12.0725 23.4025C11.4445 23.0423 10.8212 22.674 10.1839 22.3299C9.54678 21.986 8.911 21.6384 8.28306 21.2791C7.20383 20.6615 6.11078 20.0692 5.02804 19.4582C3.97409 18.8634 2.91397 18.2796 1.85617 17.6917C1.84198 17.6838 1.82274 17.685 1.80585 17.682C1.80384 17.7937 1.80026 17.9055 1.80001 18.0172C1.79064 22.1816 1.7816 26.346 1.77225 30.5104C1.79805 30.5686 1.85885 30.5884 2.00206 30.6325Z" fill="#034177"/>
</svg>
